PathFileType	4	(X/Y/Z)	C:\Users\Basilio\Documents\Thesis Gigler\squatting_fais\c3dfiles\054\SJ_pre5\markers_experimental.trc
DataRate	CameraRate	NumFrames	NumMarkers	Units	OrigDataRate	OrigDataStartFrame	OrigNumFrames
200.000000	200.000000	4	61	mm	200.000000	1401	1602
Frame#	Time	FHD			LBHD			RBHD			C7			T10			CLAV			LSHO			LUUPA			LMUPA			LDUPA			LLEP			LMEP			LRAD			LUL			LRFIN			RSHO			RUPA1			RMUPA			RDUPA			RLEP			RMEP			RRAD			RUL			RUFIN			LASI			RASI			USACR			LSACR			RSACR			LTHI1			LTHI2			LTHI3			LTHI4			LLFC			LMFC			LTIB1			LTIB2			LTIB3			LTIB4			LLMAL			LMMAL			LHEE			LMT1			LMT2			LMT5			RTHI			RTHI2			RTHI3			RTHI4			RLFC			RMFC			RTIB1			RTIB2			RTIB3			RTIB4			RLMAL			RMMAL			RHEE			RMT1			RMT2			RMT5			
		X1	Y1	Z1	X2	Y2	Z2	X3	Y3	Z3	X4	Y4	Z4	X5	Y5	Z5	X6	Y6	Z6	X7	Y7	Z7	X8	Y8	Z8	X9	Y9	Z9	X10	Y10	Z10	X11	Y11	Z11	X12	Y12	Z12	X13	Y13	Z13	X14	Y14	Z14	X15	Y15	Z15	X16	Y16	Z16	X17	Y17	Z17	X18	Y18	Z18	X19	Y19	Z19	X20	Y20	Z20	X21	Y21	Z21	X22	Y22	Z22	X23	Y23	Z23	X24	Y24	Z24	X25	Y25	Z25	X26	Y26	Z26	X27	Y27	Z27	X28	Y28	Z28	X29	Y29	Z29	X30	Y30	Z30	X31	Y31	Z31	X32	Y32	Z32	X33	Y33	Z33	X34	Y34	Z34	X35	Y35	Z35	X36	Y36	Z36	X37	Y37	Z37	X38	Y38	Z38	X39	Y39	Z39	X40	Y40	Z40	X41	Y41	Z41	X42	Y42	Z42	X43	Y43	Z43	X44	Y44	Z44	X45	Y45	Z45	X46	Y46	Z46	X47	Y47	Z47	X48	Y48	Z48	X49	Y49	Z49	X50	Y50	Z50	X51	Y51	Z51	X52	Y52	Z52	X53	Y53	Z53	X54	Y54	Z54	X55	Y55	Z55	X56	Y56	Z56	X57	Y57	Z57	X58	Y58	Z58	X59	Y59	Z59	X60	Y60	Z60	X61	Y61	Z61	

1402	7.005	-69.45002746582033	1729.069580078125	-870.8164672851565	-224.1938171386719	1679.963500976563	-958.4069824218752	-255.6249694824219	1677.152465820313	-821.569274902344	-295.7207946777344	1534.541381835938	-880.5144042968752	-389.5719299316407	1208.872192382813	-895.2164306640627	-163.2005920410157	1449.125366210938	-881.0133056640627	-202.2246551513672	1527.213012695313	-1035.327758789063	-295.7470397949219	1426.634521484375	-1223.496215820313	-264.0541076660157	1385.971435546875	-1230.556396484375	-309.0147399902344	1376.965942382813	-1271.360229492188	-310.9224243164063	1313.973876953125	-1296.592895507813	-390.1506347656251	1303.637084960938	-1254.993774414063	-308.8366394042969	1108.963989257813	-1129.389282226563	-259.4992980957032	1070.10693359375	-1175.472900390625	-259.4273986816407	1116.727416992188	-1085.7119140625	-206.9707031250001	1517.468627929688	-721.6666870117189	-330.8598327636719	1403.418334960938	-552.6876220703126	-310.9082031250001	1359.629272460938	-544.3569946289064	-363.8790588378907	1352.914916992188	-515.8374633789064	-380.6422424316407	1305.535766601563	-499.5675659179689	-444.5771484375001	1305.765869140625	-559.2446899414064	-370.5229797363282	1088.943481445313	-671.4876708984376	-328.2649841308594	1056.975219726563	-610.6817626953126	-304.7809753417969	1097.297119140625	-697.3118286132814	-228.5958557128907	1010.848754882813	-1012.057556152344	-240.0085449218751	1014.542724609375	-758.2888183593751	-407.1617736816407	1118.1044921875	-892.5256958007815	-415.7209472656251	1086.697143554688	-919.7916259765627	-418.0556030273439	1086.890380859375	-862.754089355469	-341.4085083007813	795.4427490234377	-1131.448120117188	-302.1273803710938	721.3859863281251	-1150.7890625	-255.4931793212891	729.2554931640626	-1149.2490234375	-324.1629943847657	664.4088745117189	-1141.94970703125	-303.0756530761719	511.5083312988282	-1154.828491210938	-243.0874176025391	482.8534545898439	-1035.877319335938	-249.249740600586	345.3452758789063	-1157.192626953125	-314.9494628906251	310.2061462402344	-1207.998046875	-269.8485107421876	304.0782470703126	-1196.324829101563	-265.9291381835938	221.4326629638672	-1179.14111328125	-335.9995422363282	90.50625610351564	-1233.542358398438	-277.6919250488282	97.20286560058597	-1154.199584960938	-383.0715942382813	50.39965820312501	-1161.310791015625	-170.0715789794922	55.45581817626955	-1220.792846679688	-180.5415954589844	62.78752517700197	-1268.696899414063	-244.5510559082032	40.87579727172852	-1301.937255859375	-349.2373352050782	725.7369995117189	-660.7025146484376	-309.0515441894532	675.7102661132814	-644.4876708984376	-275.5144958496094	678.8274536132814	-644.2126464843751	-325.5032348632813	593.9237670898439	-657.8865966796876	-328.2519226074219	503.2815856933595	-649.6685180664064	-247.3590698242188	495.4977416992189	-760.5267944335939	-272.3848266601563	399.279266357422	-623.0148925781251	-348.9916687011719	327.4082946777344	-600.9146728515626	-302.9128112792969	321.3525390625001	-596.6295776367189	-281.3702087402344	269.6084899902344	-607.0214843750001	-337.6434631347657	89.74630737304689	-574.4104614257814	-278.1202392578126	101.0374526977539	-648.7440185546876	-380.0487670898438	46.95127487182618	-646.7574462890626	-163.0780334472657	55.88413238525392	-588.5340576171876	-175.1337432861328	60.88418579101564	-541.9717407226564	-234.3446960449219	36.2155876159668	-510.1306152343751	
1403	7.01	-70.86241912841798	1729.354125976563	-870.5166015625002	-224.9850006103516	1680.859008789063	-958.6726074218752	-257.0500183105469	1678.13525390625	-821.9055786132815	-297.0798339843751	1534.925415039063	-880.6782226562502	-389.4603881835939	1208.783935546875	-895.1751098632815	-164.5504608154297	1449.89794921875	-881.1792602539065	-203.6390838623047	1528	-1035.480712890625	-296.4288330078126	1426.876708984375	-1223.843994140625	-264.4489746093751	1386.183715820313	-1230.690673828125	-309.1842346191407	1376.913330078125	-1271.622436523438	-311.0332336425782	1314.037719726563	-1296.699340820313	-390.1726074218751	1303.3134765625	-1255.165405273438	-307.9867858886719	1109.21435546875	-1129.388671875	-258.6944274902344	1070.475219726563	-1175.397216796875	-258.6100158691407	1117.186157226563	-1085.714111328125	-208.3844909667969	1518.573486328125	-721.9679565429689	-331.6657714843751	1403.960693359375	-552.6353149414064	-311.2771606445313	1360.080932617188	-544.3869628906251	-364.4288635253907	1353.267456054688	-515.7955322265626	-380.9326782226563	1305.67919921875	-499.4944458007814	-444.8567199707032	1305.588134765625	-559.1872558593751	-369.7284240722657	1089.038452148438	-671.1646728515626	-327.2763366699219	1057.348510742188	-610.4755859375001	-303.4252014160157	1097.590454101563	-696.8156127929689	-227.5628356933594	1011.254760742188	-1011.991455078125	-238.2624664306641	1015.090270996094	-758.2023925781251	-406.2798767089845	1117.690307617188	-892.3535766601565	-415.508270263672	1086.354125976563	-919.5305175781252	-416.9169311523439	1086.510009765625	-862.6666259765627	-339.8035278320313	795.5532836914065	-1130.818115234375	-301.4333801269532	721.4207763671876	-1149.758422851563	-254.8204956054688	728.8512573242189	-1148.146240234375	-324.3456726074219	664.6922607421876	-1140.78564453125	-303.7733154296876	511.4664306640626	-1153.5888671875	-244.9129180908204	482.6785278320314	-1034.16845703125	-250.130844116211	345.3001708984376	-1156.140258789063	-315.6821289062501	310.2983093261719	-1207.058959960938	-270.1408386230469	304.1958312988282	-1195.277587890625	-267.0703735351563	221.4666595458985	-1178.81103515625	-335.9157409667969	90.52968597412111	-1233.416015625	-277.8521118164063	97.0719909667969	-1153.88720703125	-383.0437927246094	50.40419387817384	-1161.313720703125	-170.485595703125	55.56786727905275	-1220.52978515625	-180.4694366455078	62.81162261962892	-1268.627563476563	-244.5027618408204	40.95475387573243	-1301.90673828125	-348.8265686035157	726.0429687500001	-661.2577514648439	-308.8539733886719	675.4685058593751	-645.6090087890626	-275.8424682617188	678.4449462890626	-644.7467651367189	-326.4628295898438	593.8894042968751	-658.8107910156251	-329.7731628417969	503.177703857422	-651.1888427734376	-249.1896362304688	495.0714721679689	-761.9677734375001	-273.4510803222657	399.3682861328126	-624.2054443359376	-349.9704589843751	327.3882751464844	-601.7159423828126	-304.0341186523438	321.4164123535157	-597.4580688476564	-282.3316650390626	269.7478332519532	-607.6882934570314	-337.7666015625001	89.72772216796876	-574.5320434570314	-278.2048645019532	100.9715270996094	-648.8302612304689	-380.0370483398438	46.91953659057618	-646.7788085937501	-163.0823364257813	55.90156936645509	-588.5296630859376	-175.1877136230469	60.92053604125978	-542.0336914062501	-234.3187713623047	36.28328704833985	-510.1676330566407	
1404	7.015000000000001	-71.85073089599611	1729.690063476563	-870.3684692382815	-225.7655944824219	1681.683837890625	-958.943542480469	-258.2435607910157	1678.922607421875	-822.4161376953127	-298.5277709960938	1535.36962890625	-880.9258422851565	-389.4377746582032	1208.572509765625	-895.106628417969	-165.1851043701172	1450.923950195313	-881.1337890625002	-204.8764190673829	1528.524658203125	-1035.475952148438	-296.8274841308594	1426.954223632813	-1224.064453125	-264.9347229003907	1386.455810546875	-1230.820434570313	-310.0555114746094	1377.082397460938	-1271.732666015625	-311.0638427734376	1313.994384765625	-1296.809204101563	-390.2581176757814	1302.986328125	-1255.39990234375	-307.0257263183594	1109.521484375	-1129.566528320313	-257.7046203613282	1070.826416015625	-1175.391967773438	-258.3053283691407	1117.4794921875	-1085.603393554688	-209.8095703125001	1519.45556640625	-721.9791259765626	-332.5719909667969	1404.470458984375	-552.6168823242189	-311.9157714843751	1360.541259765625	-544.4192504882814	-365.0476684570313	1353.393676757813	-515.7956542968751	-381.2856445312501	1305.749145507813	-499.3922729492189	-445.1348266601564	1305.341674804688	-559.0880737304689	-368.7896423339844	1089.118041992188	-671.0303955078126	-326.0347290039063	1057.650634765625	-610.3389282226564	-302.4691467285157	1097.731079101563	-696.2070922851564	-226.0269470214844	1011.939086914063	-1011.835144042969	-237.1746673583985	1015.476684570313	-757.9461669921876	-405.5798950195314	1117.253295898438	-892.221374511719	-415.1231689453126	1085.828369140625	-919.375427246094	-416.7764892578126	1086.050048828125	-862.4558105468752	-338.4804992675782	795.8400878906252	-1130.162719726563	-300.4709167480469	721.2713623046876	-1148.990234375	-254.1016540527344	728.4535522460939	-1147.02490234375	-324.1958007812501	664.8715820312501	-1139.934814453125	-305.3095397949219	511.4426574707032	-1152.062255859375	-246.2599029541016	482.474822998047	-1032.599487304688	-251.0172576904297	345.5768432617188	-1154.966918945313	-316.3104553222657	310.2455444335938	-1206.222534179688	-270.3959350585938	304.3869323730469	-1194.485717773438	-267.2957153320313	221.5007781982422	-1178.184204101563	-335.8769836425782	90.59037017822267	-1233.269165039063	-277.9806518554688	96.9402770996094	-1153.600341796875	-383.0824890136719	50.360408782959	-1161.286010742188	-169.9428253173828	55.41731643676759	-1220.635864257813	-180.4718322753907	62.82273483276369	-1268.565185546875	-244.5402832031251	40.99690628051759	-1301.81884765625	-348.4178466796876	726.2371215820314	-661.8744506835939	-308.9512939453126	675.2200927734376	-646.5387573242189	-275.8703918457032	677.8106689453126	-645.8482666015626	-327.2236633300782	593.9243164062501	-659.9259643554689	-331.6430969238282	503.0967407226564	-652.4799804687501	-250.8917541503907	494.8264465332032	-763.3384399414064	-274.8975830078126	399.3720092773439	-625.2048950195314	-351.1233825683594	327.4050598144532	-602.5867309570314	-305.0121154785157	321.5707397460938	-598.3397216796876	-283.2332153320313	269.7891540527344	-608.5294799804689	-337.8400268554688	89.75112915039064	-574.6441040039064	-278.3988342285157	100.8873901367188	-648.9364013671876	-380.0964965820313	46.93385696411134	-646.7728881835939	-163.0982818603516	55.87901687622072	-588.5614624023439	-175.2033996582032	60.94238662719728	-542.0435791015626	-234.3112030029297	36.30726623535157	-510.1680603027345	
1405	7.02	-72.54553222656251	1729.933227539063	-870.1982421875002	-226.625961303711	1682.276611328125	-959.2012329101565	-259.5848693847657	1679.66845703125	-822.828308105469	-299.8566894531251	1535.713134765625	-881.2220458984377	-389.3956298828126	1208.326416015625	-895.0601806640627	-166.4272613525391	1451.720581054688	-881.2023925781252	-206.1328887939454	1529.009887695313	-1035.522705078125	-297.3536682128907	1426.84033203125	-1224.32666015625	-265.4169921875001	1386.46484375	-1230.99755859375	-310.3378906250001	1376.916381835938	-1271.906616210938	-311.0878295898438	1313.867065429688	-1296.979370117188	-390.2823486328126	1302.500854492188	-1255.54931640625	-306.2341613769532	1109.559936523438	-1129.528442382813	-256.4049682617188	1071.10546875	-1175.315307617188	-257.5246582031251	1117.789672851563	-1085.596923828125	-211.1973419189454	1520.243286132813	-722.3521728515626	-333.3016662597657	1404.5546875	-552.5763549804689	-312.3203735351563	1360.7666015625	-544.5552978515626	-365.4904785156251	1353.342651367188	-515.7373657226564	-381.5184326171876	1305.70263671875	-499.3750305175782	-445.4436950683595	1305.003540039063	-558.9776611328126	-367.9571228027344	1089.14404296875	-670.9013671875001	-325.1446228027344	1057.873291015625	-610.0830078125001	-301.6253051757813	1098.003051757813	-696.3104248046876	-224.8646850585938	1012.435485839844	-1011.597900390625	-235.8574218750001	1016.072143554688	-757.6143188476564	-404.8730468750001	1116.62451171875	-891.9790649414065	-413.832000732422	1085.098999023438	-919.2830200195315	-415.0148315429689	1085.281616210938	-862.5596313476565	-337.4262084960938	796.256286621094	-1129.598266601563	-300.0048522949219	721.2231445312501	-1148.02880859375	-253.4364166259766	728.0746459960939	-1145.995361328125	-323.8563232421876	664.9652709960939	-1138.924438476563	-305.9852294921876	511.2665405273439	-1151.049072265625	-247.7453155517579	482.2707519531251	-1031.285034179688	-251.7096710205079	345.5434265136719	-1154.061767578125	-316.5559387207032	310.3169250488282	-1205.518310546875	-271.3338012695313	304.6905822753907	-1193.617553710938	-267.4035949707032	221.7244873046876	-1177.695678710938	-335.8688049316407	90.62857055664064	-1233.13671875	-278.0313110351563	96.87799835205081	-1153.443237304688	-383.0740356445313	50.33657455444337	-1161.283325195313	-170.3941955566407	55.50642776489259	-1220.430297851563	-180.4002990722657	62.83696365356447	-1268.505737304688	-244.5542449951172	41.06234741210938	-1301.84765625	-348.2069396972657	726.3859252929689	-662.3621215820314	-308.9855041503907	675.0039672851564	-647.2610473632814	-275.9973754882813	677.4417724609376	-646.6408691406251	-327.9053344726563	593.9087524414064	-660.9550781250001	-333.0635375976563	502.9053344726564	-653.5781250000001	-252.7396850585938	494.3448486328126	-764.7102661132814	-276.0894165039063	399.4179992675782	-626.2915039062501	-352.0106201171876	327.2590332031251	-602.9382934570314	-305.8947448730469	321.6936950683594	-599.2185668945314	-283.7235412597657	269.9611511230469	-608.7683715820314	-337.9649353027344	89.74625396728517	-574.6937255859376	-278.4598388671876	100.8975906372071	-648.9792480468751	-380.0907592773438	46.88604354858399	-646.7680053710939	-163.1286010742188	55.92443466186525	-588.5749511718751	-175.1587066650391	60.94431304931642	-542.0347290039064	-234.3096618652344	36.30105209350587	-510.1668395996095	
